# xmcd
#
# Track frame offsets:
#	150
#	16485
#	33721
#	48718
#	61531
#	74814
#	89942
#	107721
#	125304
#	135064
#	153580
#	167145
#	182640
#	199242
#	217950
#	233803
#	252276
#	272673
#	290783
#	303935
#	318429
#	331700
#
# Disc length: 4636 seconds
#
# Revision: 0
# Processed by: cddbd v1.5.2PL0 Copyright (c) Steve Scherf et al.
# Submitted via: EasyCDDAExtractor 10.5.1.1
#
DISCID=47121a16
DTITLE=Various Artist - Country Hits, Vol. 04
DYEAR=2007
DGENRE=Country
TTITLE0=Travis Tritt - She's Going Home With Me
TTITLE1=Sara Evans - Suds In The Bucket
TTITLE2=Brooks and Dunn - Cowboy Town
TTITLE3=LeAnn Rimes - My Baby
TTITLE4=Maria McKee - Am I The Only One (Who's Ever Felt This Way?)
TTITLE5=Gary Allan - She's So California
TTITLE6=Dixie Chicks - Never Say Die
TTITLE7=Gail Davies - The Other Side of Love
TTITLE8=Lee Kernaghan - Sassafras Gap
TTITLE9=Travis Tritt - I'm Gonna Be Somebody
TTITLE10=The Judds - I Wish She Wouldn't Treat You
TTITLE11=Dixie Chicks - Tonight The Heartache's On Me
TTITLE12=Brooks and Dunn - Cowgirls Don't Cry
TTITLE13=Rachel Sweet - Stranger In The House
TTITLE14=Suzy Bogguss - My Side of the Story
TTITLE15=Maria McKee - Only Once
TTITLE16=Gary Allan - Half Of My Mistakes
TTITLE17=Travis Tritt - Sack Full Of Stones
TTITLE18=Tanya Tucker - One Love at A Time
TTITLE19=Merle Haggard - I Know An Ending
TTITLE20=Lee Kernaghan - Bare Essentials
TTITLE21=Travis Tritt - Take It Easy
EXTD=
EXTT0=
EXTT1=
EXTT2=
EXTT3=
EXTT4=
EXTT5=
EXTT6=
EXTT7=
EXTT8=
EXTT9=
EXTT10=
EXTT11=
EXTT12=
EXTT13=
EXTT14=
EXTT15=
EXTT16=
EXTT17=
EXTT18=
EXTT19=
EXTT20=
EXTT21=
PLAYORDER=
